# xmcd
# Copyright (C) 1995-1998 Ti Kan
#
# Track frame offsets:
#       150
#       21772
#       40320
#       58122
#       91313
#       111128
#       135556
#       155120
#       173806
#       189566
#
# Disc length: 2838 seconds
#
# Revision: 0
# Processed by: cddbd v1.5.2PL0 Copyright (c) Steve Scherf et al.
# Submitted via: CD-Import v1.0
#
DISCID=840b140a
DTITLE=Shy Child - Liquid Love
DYEAR=10
DGENRE=
TTITLE0=Liquid Love
TTITLE1=Disconnected
TTITLE2=Take Us Apart
TTITLE3=Criss Cross
TTITLE4=The Beatles
TTITLE5=Open Up The Sky
TTITLE6=Esp
TTITLE7=Depth Of Feel
TTITLE8=Strange Emotion
TTITLE9=Dark Destiny
EXTD=
EXTT0=
EXTT1=
EXTT2=
EXTT3=
EXTT4=
EXTT5=
EXTT6=
EXTT7=
EXTT8=
EXTT9=
PLAYORDER=
